<svg width="35" height="35" viewBox="0 0 35 35" fill="none" xmlns="http://www.w3.org/2000/svg">
<path d="M8.74991 11.6667C8.74991 10.9702 8.74991 10.622 8.77159 10.3282C9.06326 6.37398 12.2072 3.23002 16.1614 2.93834C16.4553 2.91667 16.8035 2.91667 17.4999 2.91667C18.1963 2.91667 18.5446 2.91667 18.8384 2.93834C22.7926 3.23002 25.9366 6.37398 26.2282 10.3282C26.2499 10.622 26.2499 10.9702 26.2499 11.6667V14.3368C26.2499 15.2768 26.2499 15.7467 26.3032 16.2062C26.3985 17.0274 26.6205 17.8288 26.9613 18.582C27.152 19.0034 27.3938 19.4064 27.8774 20.2124L28.8075 21.7627C29.6133 23.1056 30.0161 23.7771 29.7289 24.2844C29.4417 24.7917 28.6586 24.7917 27.0925 24.7917H7.90734C6.34125 24.7917 5.5582 24.7917 5.27097 24.2844C4.98374 23.7771 5.38661 23.1056 6.19235 21.7627L7.12251 20.2124C7.60609 19.4064 7.84789 19.0034 8.03858 18.5819C8.37934 17.8288 8.60131 17.0274 8.69659 16.2063C8.74991 15.7468 8.74991 15.2768 8.74991 14.3368V11.6667Z" fill="#E4EEEB"/>
<path d="M20.9958 26.25C21.0786 26.25 21.1463 26.3172 21.1409 26.3999C21.0947 27.1189 20.7173 27.8008 20.0779 28.3124C19.3942 28.8594 18.4669 29.1667 17.4999 29.1667C16.533 29.1667 15.6057 28.8594 14.9219 28.3124C14.2825 27.8008 13.9051 27.1189 13.8589 26.3999C13.8536 26.3172 13.9212 26.25 14.0041 26.25L17.4999 26.25L20.9958 26.25Z" fill="#E4EEEB"/>
</svg>
