<svg width="35" height="35" viewBox="0 0 35 35" fill="none" xmlns="http://www.w3.org/2000/svg">
<path fill-rule="evenodd" clip-rule="evenodd" d="M20.5968 4.71766C20.5113 3.86173 20.4685 3.43376 20.1828 3.17522C19.8971 2.91667 19.467 2.91667 18.6068 2.91667H16.3934C15.5332 2.91667 15.1031 2.91667 14.8174 3.17522C14.5317 3.43376 14.4889 3.86173 14.4033 4.71766L14.3469 5.28143C14.1836 6.91496 14.1019 7.73173 13.5491 7.96072C12.9963 8.1897 12.361 7.66991 11.0904 6.63033L10.6514 6.27112C9.98559 5.72641 9.65271 5.45406 9.26788 5.47325C8.88304 5.49244 8.57892 5.79657 7.97066 6.40483L6.40556 7.96992C5.79731 8.57818 5.49318 8.8823 5.47399 9.26714C5.4548 9.65197 5.72715 9.98485 6.27186 10.6506L6.63152 11.0902C7.6711 12.3608 8.19089 12.9961 7.96191 13.5489C7.73292 14.1017 6.91615 14.1834 5.28262 14.3467L4.71774 14.4032C3.86181 14.4888 3.43384 14.5316 3.1753 14.8173C2.91675 15.103 2.91675 15.5331 2.91675 16.3933L2.91675 18.6067C2.91675 19.4669 2.91675 19.897 3.1753 20.1827C3.43384 20.4684 3.86181 20.5112 4.71774 20.5968L5.28207 20.6532C6.91561 20.8166 7.73237 20.8982 7.96136 21.451C8.19034 22.0039 7.67055 22.6392 6.63098 23.9097L6.2718 24.3487C5.72709 25.0145 5.45473 25.3474 5.47392 25.7322C5.49312 26.1171 5.79725 26.4212 6.4055 27.0294L7.9706 28.5945C8.57885 29.2028 8.88298 29.5069 9.26781 29.5261C9.65265 29.5453 9.98553 29.2729 10.6513 28.7282L11.0903 28.369C12.3609 27.3294 12.9962 26.8097 13.549 27.0386C14.1018 27.2676 14.1835 28.0844 14.3469 29.7179L14.4033 30.2823C14.4889 31.1383 14.5317 31.5662 14.8174 31.8248C15.1031 32.0833 15.5332 32.0833 16.3934 32.0833H18.6068C19.467 32.0833 19.8971 32.0833 20.1828 31.8248C20.4685 31.5662 20.5113 31.1383 20.5968 30.2823L20.6533 29.7174C20.8167 28.0838 20.8984 27.267 21.4512 27.0381C22.004 26.8091 22.6393 27.3289 23.9099 28.3684L24.3488 28.7276C25.0146 29.2723 25.3475 29.5446 25.7323 29.5254C26.1171 29.5063 26.4213 29.2021 27.0295 28.5939L28.5946 27.0288C29.2029 26.4205 29.507 26.1164 29.5262 25.7316C29.5454 25.3467 29.273 25.0138 28.7283 24.3481L28.3696 23.9097C27.3301 22.6391 26.8103 22.0038 27.0393 21.451C27.2682 20.8982 28.085 20.8165 29.7185 20.6532L30.2824 20.5968C31.1384 20.5112 31.5663 20.4684 31.8249 20.1827C32.0834 19.897 32.0834 19.4669 32.0834 18.6067V16.3933C32.0834 15.5331 32.0834 15.103 31.8249 14.8173C31.5663 14.5316 31.1384 14.4888 30.2824 14.4032L29.718 14.3468C28.0845 14.1834 27.2677 14.1018 27.0387 13.5489C26.8097 12.9961 27.3295 12.3608 28.3691 11.0902L28.7282 10.6513C29.273 9.98551 29.5453 9.65264 29.5261 9.2678C29.5069 8.88297 29.2028 8.57884 28.5945 7.97058L27.0294 6.40549C26.4212 5.79723 26.1171 5.49311 25.7322 5.47391C25.3474 5.45472 25.0145 5.72707 24.3488 6.27179L23.9098 6.63091C22.6392 7.67048 22.0039 8.19027 21.4511 7.96129C20.8983 7.73231 20.8166 6.91554 20.6533 5.282L20.5968 4.71766Z" fill="#E4EEEB"/>
<circle cx="17.5" cy="17.5" r="4.375" fill="#5F7770"/>
</svg>
