<svg width="35" height="35" viewBox="0 0 35 35" fill="none" xmlns="http://www.w3.org/2000/svg">
<path d="M19.5969 4.99775L25.0969 4.08109C28.34 3.54057 29.9615 3.27031 31.0224 4.16901C32.0833 5.0677 32.0833 6.71162 32.0833 9.99945V10.4008V24.8879V25.0006C32.0833 28.2884 32.0833 29.9323 31.0224 30.831C29.9615 31.7297 28.34 31.4595 25.0969 30.919L19.5969 30.0023C17.2024 29.6032 16.0051 29.4037 15.2942 28.5644C14.5833 27.7252 14.5833 26.5114 14.5833 24.0839V10.9161C14.5833 8.4886 14.5833 7.27485 15.2942 6.43561C16.0051 5.59637 17.2024 5.39683 19.5969 4.99775Z" fill="#A9BBB6"/>
<path d="M4.375 17.5L3.90648 17.1252L3.60663 17.5L3.90648 17.8748L4.375 17.5ZM17.5 18.1C17.8314 18.1 18.1 17.8313 18.1 17.5C18.1 17.1686 17.8314 16.9 17.5 16.9V18.1ZM9.73981 9.8335L3.90648 17.1252L4.84352 17.8748L10.6769 10.5831L9.73981 9.8335ZM3.90648 17.8748L9.73981 25.1665L10.6769 24.4168L4.84352 17.1252L3.90648 17.8748ZM4.375 18.1H17.5V16.9H4.375V18.1Z" fill="#3A4C47"/>
</svg>
